<?xml version="1.0" standalone="no"?>
<!DOCTYPE svg PUBLIC "-//W3C//DTD SVG 20010904//EN"
 "http://www.w3.org/TR/2001/REC-SVG-20010904/DTD/svg10.dtd">
<svg version="1.0" xmlns="http://www.w3.org/2000/svg"
 width="1024.000000pt" height="1024.000000pt" viewBox="0 0 1024.000000 1024.000000"
 preserveAspectRatio="xMidYMid meet">
<metadata>
Created by potrace 1.11, written by Peter Selinger 2001-2013
</metadata>
<g transform="translate(0.000000,1024.000000) scale(0.100000,-0.100000)"
fill="#000000" stroke="none">
<path d="M0 5120 l0 -5120 5120 0 5120 0 0 5120 0 5120 -5120 0 -5120 0 0
-5120z m8878 1218 l2 -2388 -485 0 -485 0 0 2383 c0 1311 3 2387 7 2390 3 4
221 6 482 5 l476 -3 3 -2387z m-5928 -1107 c0 -1608 3 -1804 31 -2001 31 -224
102 -450 177 -563 84 -128 229 -244 372 -298 258 -97 660 -98 980 -3 336 101
622 340 781 656 l29 58 -2 1532 -3 1532 -347 65 -348 66 0 313 0 312 835 0
835 0 2 -2267 3 -2267 295 -66 295 -67 3 -312 2 -311 -735 0 c-581 0 -735 3
-735 13 0 6 -14 176 -30 377 -17 200 -30 371 -30 380 0 8 -26 -26 -58 -75
-242 -374 -601 -632 -1027 -739 -190 -48 -533 -65 -750 -38 -432 55 -789 235
-1047 527 -237 269 -383 622 -452 1100 -37 252 -39 328 -45 1664 l-6 1324
-295 66 -295 66 -3 313 -2 312 785 0 785 0 0 -1669z m5928 -3118 l-3 -498
-480 0 -480 0 -3 498 -2 497 485 0 485 0 -2 -497z"/>
</g>
</svg>
